<svg width="640" height="320" version="1.1" viewBox="0 0 640 320" xmlns="http://www.w3.org/2000/svg">
 <style>@import url('https://fonts.googleapis.com/css2?family=Caudex:ital,wght@0,400;0,700;1,400;1,700&amp;display=swap');</style>
 <g transform="matrix(3 0 0 3 127.4 -47.54)">
  <path d="m77.21 17.95c-.28.0069-.5593.03231-.8359.07617l-18.96 2.975c-3.403.5343-6.218 2.935-7.283 6.211l-7.863 24.18-.4746.02539c-1.907.1053-3.557 1.364-4.162 3.176l-7.188 21.49-1.324-.1719c-2.733-.3543-5.154 1.774-5.154 4.529v27.89h16.09v-19.11l14.06.7305 2.865 18.38h47.48v-19.49c-.00023-1.809-1.343-3.336-3.137-3.568l-6.285-.8145.8848-32.88c.04684-1.703-1.371-3.082-3.072-2.988l-2.244.125-7.15-26.11c-.7677-2.803-3.345-4.723-6.25-4.656zm-11.28 21.05 8.953 1.055.2441 9.744-10.3.707zm1.375 28.1.1465 14.03-8.996-1.025.543-10.5z" fill="#fff"/>
  <path d="m78.85 17.64-23.85 3.744a5.154 5.154 139.5 00-4.102 3.498l-8.153 25.07a2.214 2.214 142.4 01-1.983 1.526 3.927 3.927 135 00-3.122 3.116l-6.707 20.05a1.844 1.844 147.9 01-1.985 1.243l-1.838-.2383a2.779 2.779 138.7 00-3.136 2.756v29.93h16.09v-18.06a.9954.9954 136.5 011.047-.994l11.96.6216a1.291 1.291 42.06 011.209 1.09l2.704 17.34h47.48v-19.49a3.599 3.599 48.69 00-3.136-3.569l-4.781-.6195a1.68 1.68 49.46 01-1.463-1.711l.8447-31.36a2.913 2.913 44.19 00-3.072-2.987l-.7303.0404a1.878 1.878 35.76 01-1.915-1.379l-7.409-27.06a3.536 3.536 32.88 00-3.959-2.56zm3.231 3.685 7.114 25.99a1.225 1.225 125.8 01-1.114 1.547l-10.67.5918a1.435 1.435 43.41 01-1.514-1.433v-8.847l-10.92-1.287-.3116 10.76a1.65 1.65 134.2 01-1.558 1.6l-9.958.551-8.277.4573a1.039 1.039 52.42 01-1.045-1.359l7.842-24.12a5.154 5.154 139.5 014.102-3.498l22.36-3.511a3.536 3.536 32.88 013.959 2.56zm-16.14 17.68 8.953 1.055v8.013a1.603 1.603 133.4 01-1.514 1.601l-6.247.3459a1.394 1.394 44.25 01-1.47-1.432zm28.97 13.63-.8117 30.17a1.369 1.369 139.5 01-1.545 1.321l-22.85-2.962a1.742 1.742 48.44 01-1.518-1.712l-.1039-11.71a1.186 1.186 37.51 00-1.482-1.138l-7.141 1.843a1.914 1.914 127.1 00-1.435 1.895l.1717 7.821a1.304 1.304 138.1 01-1.471 1.321l-23.75-3.079a1.248 1.248 57.94 01-1.023-1.633l6.428-19.22a4.235 4.235 138.7 013.571-3.142l40.24-2.229 9.645-.5331a2.912 2.912 44.18 013.072 2.985zm-27.83 14.88.1039 11.81a1.321 1.321 138.4 01-1.491 1.322l-4.955-.6429a1.765 1.765 48.06 01-1.538-1.712l-.1929-8.697zm-38.97 9.272 31.14 4.037 7.951 1.031 27.82 3.611v-.0059l5.313.689a3.599 3.599 48.69 013.136 3.569v17.61h-45.63l-2.696-17.3a1.291 1.291 42.06 00-1.208-1.091l-13.83-.7209a.9952.9952 136.5 00-1.047.9938v18.12h-14.09v-27.79a2.779 2.779 138.7 013.136-2.756z" stop-color="#000000"/>
  <path d="m78.76 17.76c-.05161.07337-.1025.1475-.1543.2207h.127c.1581 0 .2987-.08239.3809-.2051-.1143-.0088-.2319-.01364-.3535-.01563zm-.02734 1.133c-.2516 0-.4531.2055-.4531.457v1.52c0 .2516.2016.457.4531.457h3.348c.2516 0 .457-.2055.457-.457v-.334c-.09889-.2137-.2013-.4135-.3047-.6016v.9355c0 .08396-.06834.1523-.1523.1523h-3.348c-.084 0-.1504-.06838-.1504-.1523v-1.52c0-.07871.06003-.1446.1367-.1523.0013-.000129.0048 2.5e-5.0059 0 .0021 6.5e-5.0052 0 .0078 0h3.031c-.08113-.1078-.1657-.2093-.252-.3047zm-2.184.1973c-.116-.0024-.225.02126-.3184.09766-.0075.0028-.01605.007-.02344.0098h.7012c.08401 0 .1543.06838.1543.1523v1.52c0 .08396-.07029.1523-.1543.1523h-1.672c-.084 0-.1543.06838-.1543.1523 0 .08396.0703.1523.1543.1523h1.672c.2516 0 .459-.2055.459-.457v-1.52c0-.03271-.0052-.06492-.01172-.0957-.2594-.02005-.5514-.1587-.8066-.1641zm-1.162 3.148c-.1131 0-.2151.041-.2949.1094.06893.1199.123.2239.1523.2969.02086-.05911.07632-.1016.1426-.1016h3.346c.084 0 .1543.06838.1543.1523v1.715c.1018-.06163.2037-.1255.3047-.1914v-1.523c0-.2516-.2074-.457-.459-.457zm5.174 0c-.2516 0-.459.2055-.459.457v.6719c.1154-.0683.2211-.0856.2988-.0078h.002v.002l.002.002c.000937.0017.0031.0043.0039.0059v-.6738c0-.08396.06834-.1523.1523-.1523h2.764c-.03612-.1033-.07366-.2049-.1094-.3047zm-.1543 1.18c-.0088.03362-.02596.07164-.01172.0957l.0039.002.004.004c.0021.0021.0037.0039.0059.0059zm-5.424.5703c-.01295.0017-.02652.0066-.03711.01367-.0049.0032-.0089.0066-.01367.0098v.5078c0 .2516.2035.457.4551.457h2.42c.2089-.09302.4181-.1949.623-.3047h-3.043c-.084 0-.1504-.06838-.1504-.1523v-.4902c-.05798.02017-.1643-.04311-.2422-.04102-.0022 6.1e-5-.006 8.7e-5-.0078 0-.00095 1.7e-5-.0028-.000143-.0039 0zm9.037.6309c-.02794.03181-.06772.05273-.1133.05273h-3.006c.0029.09858.0035.2011.0039.3047h3.002c.01103 0 .02236-.0012.0332-.002.07771-.0791.1484-.165.2207-.25zm-28.7 19.69c-.0867.113-.1771.222-.2715.3281h2.996c.091 0 .1641.07517.1641.166v1.973c0 .09085-.07303.166-.1641.166h-3.621c-.091 0-.1641-.07517-.1641-.166v-1.445c-.1062.06576-.2172.1241-.3301.1738v1.271c0 .2722.222.4961.4941.4961h3.621c.2721 0 .4941-.2239.4941-.4961v-1.973c0-.2722-.222-.4941-.4941-.4941zm4.699 0c-.2721 0-.4941.2219-.4941.4941v1.973c0 .2722.2219.4961.4941.4961h1.584c-.045-.1019-.08988-.2154-.1309-.3301h-1.455c-.091 0-.1621-.07517-.1621-.166v-1.973c0-.09085.07105-.166.1621-.166h1.148c-.0249-.1071-.04953-.2162-.07813-.3281zm-7.076 1.471c-.109.01802-.2197.03501-.3301.04883v.9473c0 .09085-.07499.166-.166.166h-3.619c-.0045 0-.01224 8.5e-5-.01563 0-.1146.05908-.2277.1181-.3379.1777.0898.09343.214.1523.3535.1523h3.621c.2721 0 .4941-.2239.4941-.4961zm-4.297 2.479c-.0831.0085-.1484.07892-.1484.1641 0 .09085.07303.166.1641.166h1.812c.091 0 .1641.07321.1641.1641v1.645c0 .09085-.07303.1641-.1641.1641h-1.812c-.091 0-.1641.07516-.1641.166 0 .09085.07303.1641.1641.1641h1.812c.2721 0 .4922-.2219.4922-.4941v-1.645c0-.2722-.22-.4941-.4922-.4941h-1.812c-.0057 0-.01009-.000564-.01563 0zm3.801 0c-.2721 0-.4922.2219-.4922.4941v1.645c0 .2722.22.4941.4922.4941h3.621c.2721 0 .4941-.2219.4941-.4941v-1.645c0-.2722-.222-.4941-.4941-.4941zm5.598 0c-.2721 0-.4942.2219-.4941.4941v1.645c0 .2722.222.4941.4941.4941h3.619c.2721 0 .4961-.2219.4961-.4941v-1.645c0-.2722-.2239-.4941-.4961-.4941zm-5.615.3301h.002c.006-.000563.01252 0 .01563 0h3.619c.091 0 .166.07321.166.1641v1.645c0 .09085-.07498.1641-.166.1641h-3.619c-.091 0-.166-.07324-.166-.1641v-1.645c0-.08517.06549-.1556.1484-.1641zm5.596 0h.002c.006-.000563.01253 0 .01562 0h3.621c.091 0 .1641.07321.1641.1641v1.645c0 .09085-.07303.1641-.1641.1641h-3.621c-.091 0-.1641-.07324-.1641-.1641v-1.645c0-.08517.06353-.1556.1465-.1641zm-20.37 9.279c-.01669 0-.0326.000152-.04883.002-.1376.1393-.2732.2815-.4062.4258-.00057.0093-.002.01985-.002.0293v1.824c0 .2516.2055.457.457.457h3.346c.2516 0 .457-.2055.457-.457v-1.633c-.2098-.2233-.4162-.4413-.6133-.6484zm-.01563.3047c.0051-.00052.01038 0 .01563 0h3.346c.084 0 .1523.06838.1523.1523v1.824c0 .08396-.06834.1523-.1523.1523h-3.346c-.084 0-.1523-.06838-.1523-.1523v-1.824c0-.07871.06003-.1446.1367-.1523zm-1.354 1.195c-.1035.1313-.2054.2633-.3047.3965v.3848c0 .08396-.06639.1523-.1504.1523h-.0957l-.1016.3047h.1973c.2516 0 .4551-.2055.4551-.457zm6.084.127v.6543c0 .2516.2055.457.457.457h.5664c-.08717-.09555-.1813-.1979-.2793-.3047h-.2871c-.084 0-.1523-.06838-.1523-.1523v-.3262c-.09908-.1073-.2013-.2166-.3047-.3281zm-6.539 2.023c-.2516 0-.457.2055-.457.457v1.52c0 .2516.2055.457.457.457h3.346c.2516 0 .4551-.2055.4551-.457v-1.52c0-.2516-.2035-.457-.4551-.457zm5.17 0c-.2516 0-.4551.2055-.4551.457v1.52c0 .2516.2035.457.4551.457h.1133c-.0014-.1038-.0014-.2066.002-.3047h-.1152c-.084 0-.1523-.06838-.1523-.1523v-1.52c0-.08396.06834-.1523.1523-.1523h3.32v-.3047zm-5.186.3047c.0051-.000517.01038 0 .01563 0h3.346c.084 0 .1523.06838.1523.1523v1.52c0 .08396-.06834.1523-.1523.1523h-3.346c-.084 0-.1523-.06838-.1523-.1523v-1.52c0-.07871.06002-.1446.1367-.1523zm46.64 1.32c-.1457.1042-.2733.2052-.3867.3047h1.896c.084 0 .1523.06838.1523.1523v1.826c0 .08396-.06834.1504-.1523.1504h-3.221c-.05033.1029-.1118.2037-.1738.3027.0155.0016.03291.002.04883.002h3.346c.2516 0 .457-.2035.457-.4551v-1.826c0-.2516-.2055-.457-.457-.457zm3.334 0c-.2516 0-.4551.2055-.4551.457v1.826c0 .2516.2035.4551.4551.4551h1.539c.0039-.1017.0069-.2037.0059-.3047h-1.545c-.084 0-.1523-.06643-.1523-.1504v-1.826c0-.08396.06834-.1523.1523-.1523h1.223c-.02764-.1014-.05786-.2033-.08984-.3047zm-42.46.5039c.1586.04154.3183.04885.4824 0zm-9.113 1.217-.06836.2031c.1174.02151.2362.05771.3535.1016h1.336c.084 0 .1504.06838.1504.1523v.2715c.01927-.007.03986-.01603.05859-.02539.1042-.05212.1599-.1677.2461-.2461 0-.2516-.2035-.457-.4551-.457zm3.453 0c-.0079.109-.01758.1904-.01758.209v.0957c.0031-.000184.0067 0 .0098 0h3.346c.05015 0 .09534.02507.123.0625.01307-.09504.01792-.2141.01758-.3457-.04396-.01413-.09204-.02148-.1406-.02148zm38.7.7129c.01827.1013.03523.2031.05078.3047h2.121c-.01921-.02129-.04072-.04082-.06445-.05664-.1408-.09384-.4406-.1404-.5918-.248zm-38.86.06445c-.01746.09134-.01607.1938 0 .3027zm38.97 1.152c-.0032.05601-.0074.1131-.01367.1699-.0049.04426-.01009.0891-.01563.1348h.5254c.084 0 .1504.06838.1504.1523v1.521c0 .08396-.06639.1523-.1504.1523h-1.674c-.084 0-.1523.06838-.1523.1523 0 .08396.06834.1504.1523.1504h1.674c.2516 0 .4551-.2035.4551-.4551v-1.521c0-.2516-.2035-.457-.4551-.457zm2.32 0c-.2516 0-.457.2055-.457.457v1.521c0 .2516.2055.4551.457.4551h3.346c.2516 0 .457-.2035.457-.4551v-1.521c0-.2516-.2055-.457-.457-.457h-1.562c-.0059.0995-.1618.05119-.3008.01758.01703-.005.03469-.01176.05273-.01758zm5.172 0c-.2516 0-.457.2055-.457.457v1.521c0 .2516.2055.4551.457.4551h3.346c.08858 0 .1721-.02449.2422-.06836-.06935-.07927-.1319-.1607-.1836-.2461-.0178.0073-.03816.01172-.05859.01172h-3.346c-.084 0-.1523-.06838-.1523-.1523v-1.521c0-.08396.06834-.1523.1523-.1523h3.346c.0018 0 .0041-6.2e-5.0059 0-.01112-.1008-.01739-.2027-.01953-.3047zm-5.188.3047c.0051-.000521.01037 0 .01563 0h3.346c.084 0 .1523.06838.1523.1523v1.521c0 .08396-.06834.1523-.1523.1523h-3.346c-.084 0-.1524-.06838-.1523-.1523v-1.521c0-.07871.06-.1445.1367-.1523zm-40.67.1992c.06829.1101.1343.2133.1953.3047h1.746c.06838-.0982.136-.2003.2012-.3047zm49.36.2383v.04492c.0089.003.01738.0038.02344.0039h.008v-.002l.002-.002v-.008c-.000225-.0011-.0016-.0059-.002-.0078v-.002c-.0057-.01043-.0189-.01973-.03125-.02734zm-12.02 2.605c-.2516 0-.457.2035-.457.4551v1.826c0 .1816.1077.3387.2617.4121.2527-.07702.5319-.184.7207-.2598h-.5254c-.084 0-.1523-.06838-.1523-.1523v-1.826c0-.08396.06834-.1523.1523-.1523h3.346c.084 0 .1523.06838.1523.1523v.9434c.01874-.0074.03581-.01464.05273-.02148.03436-.01389.1233-.05086.252-.1055v-.8164c0-.2516-.2055-.4551-.457-.4551zm5.172 0c-.2516 0-.457.2035-.457.4551v.4277c.09794-.0417.2001-.08443.3047-.1289v-.2988c0-.08396.06834-.1523.1523-.1523h.9102c.2449-.1035.4891-.2048.7227-.3027zm3.006 0c-.06694.09963-.1351.2044-.1973.3027h.5371c.084 0 .1523.06838.1523.1523v1.646c.09498.01785.1975.03661.3047.05273v-1.699c0-.2516-.2055-.4551-.457-.4551zm2.164 0c-.2516 0-.4551.2035-.4551.4551v1.801c.1017.0078.2021.01427.3027.01953v-1.82c0-.08396.06834-.1523.1523-.1523h1.674c.084 0 .1523-.06643.1523-.1504s-.06834-.1523-.1523-.1523zm-54.73 6.688c-.04071.0028-.08884.03273-.1426.08203v.9473c0 .08396-.06834.1523-.1523.1523h-.6035c-.07361.1188-.1406.2253-.1973.3047h.8008c.2516 0 .457-.2055.457-.457v-.9395c-.0483-.04619-.09509-.07553-.1367-.08594-.0043-.0011-.01116-.0031-.01563-.0039h-.002c-.0026-5.7e-5-.0051-.000185-.0078 0zm-5.314.1055v.9238c0 .08396-.06834.1523-.1523.1523h-.5938v.3047h.5938c.2516 0 .457-.2055.457-.457v-.5449c-.1029-.121-.2047-.2495-.3047-.3789zm1.521.8594c-.09683.1111-.1887.1939-.2715.2344.06772.1673.2325.2871.4238.2871h2.268c-.06032-.08655-.1185-.1906-.1758-.3047h-2.092c-.084 0-.1523-.06838-.1523-.1523zm-1.674 1.434c-.2516 0-.4551.2055-.4551.457v1.52c0 .2516.2035.457.4551.457h.8945c.02136-.1332.04215-.2484.06641-.2969v-.002l.002-.002v-.002l.002-.002h-.9648c-.084 0-.1504-.06838-.1504-.1523v-1.52c0-.08396.06639-.1523.1504-.1523h3.348c.084 0 .1523.06839.1523.1523v1.52c0 .08396-.06834.1523-.1523.1523h-2.307c.06175.04562.1436.1695.2227.3047h2.084c.2516 0 .4551-.2055.4551-.457v-1.52c0-.2516-.2035-.457-.4551-.457zm5.172 0c-.2516 0-.4551.2055-.4551.457v1.52c0 .2516.2035.457.4551.457h.7715c-.0068-.1048-.01519-.2073-.02539-.3047h-.7461c-.084 0-.1523-.06838-.1523-.1523v-1.52c0-.08396.06834-.1523.1523-.1523h2.129c-.06799-.1016-.1364-.2035-.2051-.3047zm3.578 1.529-.002.002h-.002v.002l-.004.004v.002c-.04831.1449-.01554.4875.002.8359.0307-.01747.05824-.03865.08398-.0625v-.4316c0-.08552.0207-.1729 0-.2559-.0069-.02689-.0411-.07854-.06445-.09375h-.004l-.002-.002h-.006zm-2.309.5996c.1049.1016.2109.2037.3164.3047h1.76c.07085 0 .1393-.01597.1992-.04492-.09413-.0834-.1697-.1698-.2363-.2598zm-7.035 1.217v.3047h.5859c.03997-.09579.07349-.1934.1016-.2949-.02997-.0062-.06197-.0098-.09375-.0098zm2.42 0c-.03256 0-.06505.0032-.0957.0098.0435.09078.09228.1904.1426.2949h3.299c.084 0 .1523.06838.1523.1523v1.021c.0815.1355.1776.2614.3047.3652v-1.387c0-.2516-.2055-.457-.457-.457zm6.113 0c.08911.01472.1813.0079.2734 0zm63.55 2.35c-.1006.07628-.2044.1504-.3066.2227v1.08c0 .08396-.06639.1523-.1504.1523h-3.1c-.04036.02919-.07833.05737-.1191.08594-.08815.06171-.1963.1219-.3125.1797.05649.0251.1199.03906.1855.03906h3.346c.2516 0 .457-.2055.457-.457v-.6504zm-68.54.08398c.06734.1135.1182.1881.1465.207.102.06803.2113-.09361.3008-.207zm69.45.6426v.5762c0 .2516.2035.457.4551.457h3.348c.2515 0 .457-.2055.457-.457v-.2266l-.3066-.02539v.252c0 .08396-.0664.1523-.1504.1523h-3.348c-.084 0-.1504-.06838-.1504-.1523v-.5508zm5.17.4238v.1523c0 .03417.005.06754.0117.09961zm-10.05 1.521c-.0767.0078-.1367.07363-.1367.1523 0 .08396.06639.1523.1504.1523h1.676c.084 0 .1504.06839.1504.1523v1.52c0 .08396-.06639.1523-.1504.1523h-1.676c-.084 0-.1504.06838-.1504.1523 0 .08396.06639.1523.1504.1523h1.676c.2516 0 .4551-.2055.4551-.457v-1.52c0-.2516-.2035-.457-.4551-.457h-1.676c-.0027 0-.0076 6.5e-5-.0098 0-.0011 2.4e-5-.0026-.00013-.0039 0zm3.514 0c-.2516 0-.457.2055-.457.457v1.52c0 .2516.2055.457.457.457h3.346c.2516 0 .4551-.2055.4551-.457v-1.52c0-.2516-.2035-.457-.4551-.457zm5.172 0c-.2516 0-.457.2055-.457.457v1.52c0 .2516.2054.457.457.457h1.545l-.0137-.3047h-1.531c-.084 0-.1543-.06838-.1543-.1523v-1.52c0-.08396.0702-.1523.1543-.1523h1.449l-.0137-.3047zm-5.186.3047h.002c.0033-7.3e-5.0078 0 .01172 0h3.346c.084 0 .1523.06839.1523.1523v1.52c0 .08396-.0683.1523-.1523.1523h-3.346c-.084 0-.1504-.06838-.1504-.1523v-1.52c0-.07871.06002-.1446.1367-.1523zm-39.11 2.201c-.1944.05227-.3379.2307-.3379.4414v1.824c0 .2516.2055.457.457.457h3.346c.2516 0 .457-.2055.457-.457v-.6406c-.1015-.000876-.2035-.0019-.3047-.0059v.6465c0 .08396-.06834.1523-.1523.1523h-3.346c-.084 0-.1523-.06838-.1523-.1523v-1.824c0-.08396.06834-.1523.1523-.1523h.2734c-.1036-.07213-.1838-.1816-.2949-.2422-.03215-.01753-.06497-.03275-.09766-.04687zm5.559.01953c-.115-.0029-.2183.0048-.3086.02734-.1639.04098-.2816.1087-.3672.1914-.03064.06127-.04883.1301-.04883.2031v1.824c0 .2516.2055.457.457.457h1.672c.084 0 .1523-.06838.1523-.1523 0-.08396-.06834-.1523-.1523-.1523h-1.672c-.084 0-.1523-.06838-.1523-.1523v-1.824c0-.08396.06834-.1523.1523-.1523h1.52c-.4644-.1485-.9071-.2608-1.252-.2695zm-6.885.1699c-.05603.03797-.1106.07945-.1621.123-.02628.02223-.0517.04497-.07813.06836.0081.01861.01172.03896.01172.06055v1.824c0 .08396-.06834.1523-.1523.1523h-.1641v.3047h.1641c.2516 0 .457-.2055.457-.457v-1.824c0-.09293-.02826-.1798-.07617-.252zm37.1.6504c-.2516 0-.4551.2055-.4551.457v.02344c.198-.1708.3973-.3599.5703-.4805zm.6289 0c.1025.08024.2313.1907.3613.3047h2.355c.084 0 .1504.06838.1504.1523v1.217c.1005.03011.2042.05684.3066.08008v-1.297c0-.2516-.2055-.457-.457-.457zm4.541 0c-.2516 0-.4551.2055-.4551.457v1.396c.07805-.000747.1564-.0041.2363-.0098.02254-.0016.04601-.0029.06836-.0059v-1.381c0-.08396.06639-.1523.1504-.1523h1.271c.02195-.104.04594-.2112.06641-.3047zm1.568 0c.0138.101.0164.2059.0391.3047h1.738c.084 0 .1524.06838.1524.1523v1.65c.1223-.01138.2312-.02456.3047-.0332v-1.617c0-.2516-.2055-.457-.457-.457zm3.367.06641c-.1314.08047-.2207.226-.2207.3906v1.51c.0996-.01399.2028-.0297.3047-.04687zm-47.59 2.729c-.05798 0-.1131.01138-.1641.03125v2.371c.05097.01972.1061.03125.1641.03125h1.307c.03208-.04893.06502-.0969.1016-.1426.04282-.05353.08985-.1091.1367-.1621h-1.545c-.084 0-.1504-.06643-.1504-.1504v-1.521c0-.08396.06639-.1523.1504-.1523h3.348c.084 0 .1523.06839.1523.1523v1.521c0 .08396-.06834.1504-.1523.1504h-1.094c.07313.09514.1516.2011.2246.3047h.8691c.2516 0 .4551-.2035.4551-.4551v-1.521c0-.2516-.2035-.457-.4551-.457zm5.172 0c-.2516 0-.4551.2055-.4551.457v1.521c0 .2516.2035.4551.4551.4551h2.123c-.2254-.1296-.3902-.2206-.5332-.3047h-1.59c-.084 0-.1523-.06643-.1523-.1504v-1.521c0-.08396.06834-.1523.1523-.1523h1.027c.2144-.06655.4859-.1525.8242-.2598.04573-.0145.09103-.02915.1387-.04492zm-5.336 3.346v.3047h.1641c.084 0 .1523.06838.1523.1523v.0098c.08043-.08001.1624-.1614.2422-.2422-.07954-.1342-.2276-.2246-.3945-.2246zm2.965 0c-.02295.1008-.0598.203-.0957.3047h2.467c.084 0 .1523.06838.1523.1523v1.826c0 .084-.06834.1504-.1523.1504h-2.725c.0056.0808.0118.1733.01758.2773.00053.009.00026.01804 0 .02734h2.707c.2516 0 .457-.2035.457-.4551v-1.826c0-.2516-.2055-.457-.457-.457zm4.197 0c-.2516 0-.457.2055-.457.457v1.826c0 .2516.2055.4551.457.4551h.7285c.1152-.0937.2223-.1956.3203-.3047h-1.049c-.084 0-.1523-.0664-.1523-.1504v-1.826c0-.08396.06834-.1523.1523-.1523h1.672c.02644 0 .05256-.0057.07422-.01758 0-.09403-.0059-.1852-.02734-.2793-.01472-.0047-.03057-.0078-.04687-.0078z" stroke-width=".3042"/>
  <path d="m62.34 97.53v2.846c0 .2243.1578.5.3691.5738.284.0993.5932.1671.8469.3062.1882.1032.3073.4186.31.6354.01132.9114-.0017 1.837-.0039 2.758-.0013.5414-.2045.5901-.5357.1622-1.271-1.642-3.312-2.657-5.406-2.58-2.268.0433-4.463 1.203-5.672 3.077-.4959.7683-1.066.7841-1.52-.0271-1.439-2.252-4.325-3.488-6.942-2.919-.2975-.4422.03187-1.068-.07125-1.576-.0072-.8764-.0044-1.753 3.3e-5-2.629.0036-.7088-.5678-1.283-1.277-1.283h-7.401a.6141.6141 135 00-.6141.6141v2.742c0 .318.233.6878.5339.7893.3215.1085.6491.2089.9094.3996.2153.6101-.01388 1.308.07031 1.952-.0078 3.363-.4256 3.21-.5549 2.803-.8673-2.754-3.975-4.219-6.723-3.923-2.715.1039-5.668 1.297-6.881 3.884-.283.6737.717-3.068-.2664-5.129-1.156-2.614-4.055-4.099-6.842-4.048-3.967-.1877-7.94-.03596-11.91-.08119-.2797-.0032-.552.2167-.6201.4896-.2651 1.062-.6292 2.219.1284 3.147.4078.5382 1.062.84 1.732.8966.2137.0181.3889.1792.3897.3938.01504 4.185.01783 8.37.0006167 12.55-.00108.2632-.2154.4829-.4785.4906-.4016.0118-.8033.0237-1.205.0357-.2396.007-.4761.2026-.5379.4343-.2731 1.025-.6616 2.141.02436 3.074.5897.9149 1.751 1.063 2.751.9594 3.685-.0486 7.389.1768 11.06-.2101 1.51-.2356 3.483-1.664 4.599-2.318.3127-.1832 1.082-.1387 1.326.0466.9413.7125 2.222 2.673 3.682 2.658 1.287.0613 3.012-1.098 3.599-1.054.4582.0343 4.316 1.435 6.07.1016.5269-.5431.7202-.7296.973 0 .5981 1.054 2.055 1.38 3.084.8789.5175-.1598.911-.8544 1.506-.4609 3.5 1.844 8.245.2997 10.02-3.182.2218-.694.4127-.6057.6108 0 1.38 3.147 5.285 4.636 8.492 3.634l11.95-.0836s.8426-.0939 1.063-.8138c.2853-.9294.5218-1.913-.09328-2.757-.1619-.2877-.4174-.4918-.6831-.6761-.2575-.1787-.4931-.5747-.5066-.888-.04492-1.038.03894-2.089-.005-3.13.009-2.421-.02363-4.869.0064-7.288.01371-1.106.3888-1.175.8119-.1531 2.122 5.126 4.151 10.29 6.236 15.43.09008.222.3489.4597.5808.5204.985.258 2.092.3707 2.877-.4017.8455-.8062.9942-2.043 1.534-3.041.5378-1.27 1.076-2.54 1.613-3.809.268-.6328.6851-.6258.9317.0157.9124 2.374 1.825 4.748 2.737 7.122 1.086.3095 2.415.611 3.322-.2832.8779-.8232.9778-2.111 1.49-3.151 1.776-4.678 3.53-9.364 5.365-14.02.1491-.3782.6043-.7448.9561-.9458 1.422-.8121 1.104-2.809.4008-3.741-.2637-.3494-.9939-.4783-1.44-.4783l-4.871-8e-6c-.2056-1e-6-.4837.1247-.6363.2625-.752.6796-1.444.7074-2.139.08344-.1968-.1767-.5457-.3459-.8104-.3459h-8.138c-.2181 0-.5193.1262-.6876.2648-.8294.6825-1.577.7048-2.365.06671-.2095-.1695-.5767-.3315-.8464-.3315l-15.61-4.7e-5a.656.656 135 00-.656.656zm46.52 1.344v1.692c0 .1224.0843.2752.1966.3235.3503.1507.7772.2072 1.084.4132.1234.0828.2135.3011.224.4507.0629.8924-.0306 1.816.009 2.717-.0355.4478.1562 1.62-.3086.6805-1.765-2.84-5.84-3.764-8.699-2.07-3.095 1.61-4.657 5.26-4.397 8.645.07845 3.043 1.622 6.301 4.577 7.484 2.836 1.18 6.86.6681 8.359-2.027.1339-.2408.5694-1.043.6323.0344l-.1002 2.4c-.0546 1.307 2.781.4006 3.902-.4952.5182-.5778 1.165.083 1.725.2217 3.691 1.341 8.144-.7633 9.571-4.399 1.61-3.487 1.301-8.071-1.483-10.88-1.453-1.388-3.558-2.057-5.543-1.762-.2531.0376-.4556-.1221-.4558-.378l-.005-4.543a.5094.5094 44.97 00-.5094-.5089h-8.547c-.1277 0-.2312.1035-.2312.2312 0 .5896-1e-5 1.179 0 1.769z" fill="#fff" stroke="#000"/>
  <path d="m15.67 107.6q2.631.6134 3.694 1.486 1.527 1.24 1.527 3.217 0 2.086-1.677 3.449-2.058 1.649-5.984 1.649h-9.392v-.5044q1.281 0 1.731-.2317.4635-.2454.6407-.627.1908-.3817.1908-1.881v-12q0-1.499-.1908-1.881-.1772-.3953-.6407-.627-.4635-.2317-1.731-.2317v-.5044h8.86q3.176 0 4.498.5725 1.322.5589 2.086 1.69.7633 1.118.7633 2.385 0 1.336-.9678 2.385-.9678 1.036-3.408 1.649zm-4.962-.368q1.936 0 2.849-.4362.9269-.4362 1.418-1.227.4907-.7906.4907-2.017 0-1.227-.4907-2.004-.4771-.7906-1.377-1.2-.8997-.4089-2.89-.3953zm0 1.063v5.93l-.01363.6816q0 .7361.368 1.118.3817.368 1.118.368 1.09 0 2.004-.4771.9269-.4907 1.418-1.404.4907-.9269.4907-2.058 0-1.295-.5998-2.317-.5998-1.036-1.649-1.445t-3.135-.3953zm19.14 7.224q-2.331 2.058-4.185 2.058-1.09 0-1.813-.7088-.7224-.7224-.7224-1.799 0-1.459 1.254-2.617 1.254-1.172 5.466-3.108v-1.281q0-1.445-.1636-1.813-.1499-.3817-.5861-.6543-.4362-.2862-.9814-.2862-.886 0-1.459.3953-.3544.2454-.3544.5725 0 .2862.3817.7088.518.5861.518 1.131 0 .6679-.5044 1.145-.4907.4635-1.295.4635-.8588 0-1.445-.518-.5725-.518-.5725-1.213 0-.9814.777-1.867.777-.8996 2.167-1.377 1.39-.4771 2.89-.4771 1.813 0 2.863.777 1.063.7633 1.377 1.663.1908.5725.1908 2.631v4.948q0 .8724.06815 1.104.06816.2181.2045.3272.1363.109.3135.109.3544 0 .7224-.5044l.4089.3272q-.6816 1.009-1.418 1.472-.7224.4498-1.649.4498-1.09 0-1.704-.5044-.6134-.518-.7497-1.554zm0-.9951v-4.267q-1.649.9678-2.454 2.072-.5316.7361-.5316 1.486 0 .627.4498 1.104.3408.368.9542.368.6816 0 1.581-.7634zm11.86-15.61v7.02q1.608-1.663 3.517-1.663 1.309 0 2.467.777 1.159.7633 1.813 2.181.6543 1.418.6543 3.271 0 2.086-.8315 3.789-.8315 1.704-2.222 2.604-1.39.886-3.176.886-1.036 0-1.84-.3272-.8042-.3272-1.581-1.063l-2.113 1.377h-.4635v-16.21q0-1.104-.09542-1.363-.1363-.3817-.4362-.5589-.2863-.1908-.9814-.2181v-.5044zm0 8.233v5.671q0 1.731.08179 2.208.1363.8042.6543 1.309.518.4907 1.322.4907.6952 0 1.186-.3953.5044-.3953.8315-1.568.3408-1.172.3408-4.226 0-2.931-.7361-4.021-.5316-.7906-1.431-.7906-1.172 0-2.249 1.322zm21.39 3.421h-6.993q.1227 2.535 1.349 4.008.9405 1.131 2.263 1.131.8179 0 1.486-.4498.6679-.4634 1.431-1.649l.4635.2999q-1.036 2.113-2.29 2.999-1.254.8724-2.903.8724-2.835 0-4.294-2.181-1.172-1.758-1.172-4.362 0-3.19 1.718-5.071 1.731-1.895 4.048-1.895 1.936 0 3.353 1.595 1.431 1.581 1.54 4.703zm-3.353-.9133q0-2.195-.2454-3.012-.2317-.8179-.7361-1.24-.2863-.2454-.7633-.2454-.7088 0-1.159.6952-.8042 1.213-.8042 3.326v.4771zm9.937-10.74v15.84q0 1.349.3135 1.731.3135.368 1.227.4226v.4907h-6.884v-.4907q.8451-.0273 1.254-.4907.2726-.3135.2726-1.663v-13.19q0-1.336-.3135-1.704-.3135-.3817-1.213-.4362v-.5044zm29.5 0v.5044q-.518.04089-.8724.2863-.3544.2454-.627.7497-.08179.1636-.8588 2.113l-5.793 15.25h-.5316l-4.58-11.91-5.044 11.91h-.5044l-6.079-15.09q-.9269-2.276-1.295-2.753-.368-.4771-1.24-.5589v-.5044h8.015v.5044q-.9678.02726-1.295.2999-.3135.259-.3135.6543 0 .518.6679 2.195l3.626 8.969 2.903-7.006-.7633-1.963q-.627-1.608-.9678-2.14-.3408-.5452-.7906-.777-.4362-.2317-1.295-.2317v-.5044h8.956v.5044q-.9405.01363-1.349.1499-.2863.09542-.4498.3271-.1636.2181-.1636.5044 0 .3135.6134 1.922l3.367 8.751 3.012-7.92q.4771-1.227.5861-1.677.109-.4498.109-.8315 0-.5589-.3817-.8724-.3817-.3271-1.459-.3544v-.5044zm10.44 11.65h-6.993q.1227 2.535 1.349 4.008.9405 1.131 2.263 1.131.8179 0 1.486-.4498.6679-.4634 1.431-1.649l.4635.2999q-1.036 2.113-2.29 2.999-1.254.8724-2.903.8724-2.835 0-4.294-2.181-1.172-1.758-1.172-4.362 0-3.19 1.718-5.071 1.731-1.895 4.048-1.895 1.936 0 3.353 1.595 1.431 1.581 1.54 4.703zm-3.353-.9133q0-2.195-.2454-3.012-.2317-.8179-.7361-1.24-.2862-.2454-.7633-.2454-.7088 0-1.159.6952-.8042 1.213-.8042 3.326v.4771zm9.883-10.74v7.02q1.608-1.663 3.517-1.663 1.309 0 2.467.777 1.159.7633 1.813 2.181.6543 1.418.6543 3.271 0 2.086-.8315 3.789-.8315 1.704-2.222 2.604-1.39.886-3.176.886-1.036 0-1.84-.3272-.8042-.3272-1.581-1.063l-2.113 1.377h-.4634v-16.21q0-1.104-.0954-1.363-.1363-.3817-.4362-.5589-.2862-.1908-.9814-.2181v-.5044zm0 8.233v5.671q0 1.731.0818 2.208.1363.8042.6543 1.309.518.4907 1.322.4907.6952 0 1.186-.3953.5044-.3953.8315-1.568.3408-1.172.3408-4.226 0-2.931-.7361-4.021-.5316-.7906-1.431-.7906-1.172 0-2.249 1.322z" fill="#b22222" aria-label="BabelWeb"/>
 </g>
</svg>
